<?xml version="1.0" encoding="UTF-8" standalone="no"?>
<!-- Created with Inkscape (http://www.inkscape.org/) -->

<svg
   xmlns:dc="http://purl.org/dc/elements/1.1/"
   xmlns:cc="http://creativecommons.org/ns#"
   xmlns:rdf="http://www.w3.org/1999/02/22-rdf-syntax-ns#"
   xmlns:svg="http://www.w3.org/2000/svg"
   xmlns="http://www.w3.org/2000/svg"
   xmlns:sodipodi="http://sodipodi.sourceforge.net/DTD/sodipodi-0.dtd"
   xmlns:inkscape="http://www.inkscape.org/namespaces/inkscape"
   width="10cm"
   height="10cm"
   viewBox="0 0 100 99.999997"
   version="1.1"
   id="svg6913"
   inkscape:version="0.92.1 r15371"
   sodipodi:docname="communication-skills-verbal.svg">
  <defs
     id="defs6907" />
  <sodipodi:namedview
     id="base"
     pagecolor="#ffffff"
     bordercolor="#666666"
     borderopacity="1.0"
     inkscape:pageopacity="0.0"
     inkscape:pageshadow="2"
     inkscape:zoom="1.7482473"
     inkscape:cx="101.07375"
     inkscape:cy="235.53216"
     inkscape:document-units="mm"
     inkscape:current-layer="layer1"
     showgrid="false"
     units="cm"
     showguides="true"
     inkscape:guide-bbox="true"
     inkscape:window-width="1920"
     inkscape:window-height="1017"
     inkscape:window-x="-8"
     inkscape:window-y="-8"
     inkscape:window-maximized="1">
    <sodipodi:guide
       position="49.979401,32.874151"
       orientation="1,0"
       id="guide7481"
       inkscape:locked="false" />
    <sodipodi:guide
       position="72.162772,49.9794"
       orientation="0,1"
       id="guide7483"
       inkscape:locked="false" />
    <sodipodi:guide
       position="100.87239,94.801151"
       orientation="0,1"
       id="guide7485"
       inkscape:locked="false" />
    <sodipodi:guide
       position="94.824775,101.51023"
       orientation="1,0"
       id="guide7487"
       inkscape:locked="false" />
    <sodipodi:guide
       position="101.44549,5.2117557"
       orientation="0,1"
       id="guide7489"
       inkscape:locked="false" />
    <sodipodi:guide
       position="5.1971725,103.84896"
       orientation="1,0"
       id="guide7491"
       inkscape:locked="false" />
    <inkscape:grid
       type="xygrid"
       id="grid7493" />
  </sodipodi:namedview>
  <metadata
     id="metadata6910">
    <rdf:RDF>
      <cc:Work
         rdf:about="">
        <dc:format>image/svg+xml</dc:format>
        <dc:type
           rdf:resource="http://purl.org/dc/dcmitype/StillImage" />
        <dc:title></dc:title>
      </cc:Work>
    </rdf:RDF>
  </metadata>
  <g
     inkscape:label="Layer 1"
     inkscape:groupmode="layer"
     id="layer1"
     transform="translate(0,-197.00002)">
    <g
       transform="matrix(0.15366983,0,0,0.15366983,-60.059662,69.145797)"
       id="g5824">
      <path
         style="opacity:1;vector-effect:none;fill:#000000;fill-opacity:1;fill-rule:evenodd;stroke:none;stroke-width:6;stroke-linecap:round;stroke-linejoin:round;stroke-miterlimit:4;stroke-dasharray:none;stroke-dashoffset:0;stroke-opacity:1;paint-order:fill markers stroke"
         d="m 1012.2188,1424.9435 c -2.163,-30.3328 -11.1023,-71.7228 -17.55604,-81.286 -3.892,-5.7671 -15.01859,-13.6672 -25.05219,-17.7876 -7.94155,-3.2614 -27.02023,-7.4895 -28.21379,-6.2528 -0.43543,0.4512 -4.35351,12.3961 -8.70697,26.5446 l -7.91527,25.7251 -8.07858,0.31 c -5.63239,0.2161 -8.40806,-0.1088 -9.16688,-1.0723 -0.5986,-0.7601 -4.50231,-12.6467 -8.67492,-26.4149 -4.17261,-13.7683 -7.79344,-25.24 -8.04601,-25.4925 -0.70789,-0.7079 -21.96385,4.5185 -28.83702,7.0905 -3.36557,1.2593 -7.08501,3.1069 -8.26513,4.1052 -2.14251,1.8126 -2.14201,1.8277 0.3664,10.3901 6.89321,23.5295 15.75003,95.322 13.07465,105.9816 -0.24969,0.9948 -0.4417,1.6365 -0.98081,2.0521 H 1013.228 c -0.6753,-15.5483 -0.6177,-19.2064 -1.0092,-23.8931 z"
         id="path5085"
         inkscape:connector-curvature="0"
         sodipodi:nodetypes="cccccccccccccccccc" />
      <path
         style="opacity:1;vector-effect:none;fill:#000000;fill-opacity:1;fill-rule:evenodd;stroke:none;stroke-width:6;stroke-linecap:round;stroke-linejoin:round;stroke-miterlimit:4;stroke-dasharray:none;stroke-dashoffset:0;stroke-opacity:1;paint-order:fill markers stroke"
         d="m 485.70269,1447.5831 c 0,0.6941 0.55906,1.2532 1.25316,1.2532 h 144.51934 v -11.9306 c 0,-25.6338 4.60832,-61.2295 11.46752,-88.5816 l 3.75842,-14.9877 -3.47989,-2.9053 c -3.458,-2.8868 -18.01506,-9.6522 -23.96856,-11.1394 l -3.11144,-0.7772 0.79013,7.3923 c 3.1763,29.7175 3.50871,40.9338 1.2392,41.8047 -1.37789,0.5287 -17.35097,-8.3118 -31.42857,-17.3943 -3.0859,-1.9909 -6.30311,-3.6194 -7.14891,-3.6194 -0.8458,0 -9.62157,4.823 -19.50217,10.7182 -9.8806,5.8952 -18.67638,10.7187 -19.54558,10.7187 -1.3547,0 -1.48345,-2.4128 -0.90175,-16.8816 0.3733,-9.285 1.21455,-20.1747 1.86965,-24.199 0.6551,-4.0244 0.91826,-7.5898 0.58446,-7.9236 -0.7903,-0.7903 -12.38025,3.4221 -20.17344,7.3324 -12.7602,6.4024 -15.3832,10.4744 -21.7749,33.7958 -6.3584,23.1999 -11.16222,48.5061 -13.29532,70.0438 -0.92863,7.7995 -1.15135,17.2806 -1.15135,17.2806 z"
         id="path5083"
         inkscape:connector-curvature="0"
         sodipodi:nodetypes="cscsccccccccsssscscscc" />
      <path
         style="opacity:1;vector-effect:none;fill:#95af28;fill-opacity:1;fill-rule:evenodd;stroke:none;stroke-width:6.69712353;stroke-linecap:round;stroke-linejoin:round;stroke-miterlimit:4;stroke-dasharray:none;stroke-dashoffset:0;stroke-opacity:1;paint-order:fill markers stroke"
         d="m 756.24503,906.57071 c 27.01959,0.0374 54.29625,1.65664 80.82246,4.99284 97.16434,12.22053 169.88941,47.34932 169.88941,82.06315 0,19.8915 -25.29502,41.2588 -71.05253,60.0197 -4.4196,1.8121 -7.85966,4.1138 -8.76176,5.862 -1.00692,1.9516 -2.11508,13.8441 -3.44165,36.931 -1.08611,18.9019 -2.40987,34.0523 -2.975,34.0523 -0.55996,0 -7.15195,-13.1773 -14.64873,-29.2828 -9.41584,-20.2285 -14.50105,-29.8515 -16.44603,-31.1212 -2.44766,-1.5978 -5.57551,-1.3997 -23.93807,1.515 -28.08933,4.4585 -40.98888,5.9066 -70.73316,7.9402 -22.20748,1.5183 -25.18225,1.9915 -26.99369,4.2937 -1.20288,1.5286 -4.82216,14.2956 -8.84597,31.204 -3.74552,15.7391 -7.31325,28.8256 -7.92819,29.0809 -0.61497,0.2554 -7.2648,-12.9226 -14.7774,-29.2844 -7.51263,-16.3615 -14.56862,-30.727 -15.68019,-31.9225 -1.45076,-1.5603 -5.28487,-2.4368 -13.58675,-3.1058 -17.11781,-1.3795 -40.34416,-4.3014 -60.50536,-7.612 -16.1879,-2.658 -18.09027,-2.7404 -20.36517,-0.8819 -1.3801,1.1275 -10.87014,16.5523 -21.08914,34.2771 -10.219,17.7246 -19.10056,32.6267 -19.73626,33.1162 -0.8189,0.6305 -0.9417,-4.7192 -0.4222,-18.3522 2.2737,-59.6628 2.29064,-57.6655 -0.52296,-60.8978 -1.4424,-1.6571 -7.98128,-4.9797 -15.06058,-7.6532 -28.1292,-10.6227 -47.0956,-22.391 -59.1137,-36.6785 -7.19931,-8.5589 -9.64317,-14.886 -9.07077,-23.48472 0.9267,-13.92289 11.07642,-25.88154 33.53232,-39.50896 47.66544,-28.92571 133.18711,-45.68396 221.45107,-45.56211 z"
         id="path5081"
         inkscape:connector-curvature="0" />
      <path
         style="opacity:1;vector-effect:none;fill:#000000;fill-opacity:1;fill-rule:evenodd;stroke:none;stroke-width:6;stroke-linecap:round;stroke-linejoin:round;stroke-miterlimit:4;stroke-dasharray:none;stroke-dashoffset:0;stroke-opacity:1;paint-order:fill markers stroke"
         d="m 773.33491,1148.1203 c -0.0262,0 -0.0518,0 -0.078,0 -0.57542,0.075 -1.21319,1.4087 -2.39676,3.5543 -1.43891,2.6085 -3.34928,4.8835 -4.24521,5.0561 -0.89593,0.1724 -3.68601,-1.4468 -6.20014,-3.5988 -2.51412,-2.152 -4.88124,-3.6026 -5.26015,-3.2236 -0.37889,0.3787 -0.71734,2.2446 -0.7524,4.1465 l -0.0641,3.4582 -7.87548,0.7028 c -27.43766,2.4494 -51.17981,22.0409 -56.04,46.2422 -0.9304,4.6331 -0.88691,7.9261 0.19119,14.3681 1.48982,8.9026 1.57962,13.1144 0.43514,20.4385 -0.57902,3.7049 -0.18368,5.6645 2.07221,10.2754 1.60131,3.273 3.8993,6.2043 5.4007,6.8884 1.77581,0.8091 4.54541,4.9668 8.63772,12.9672 8.67836,16.9662 20.04254,28.8476 31.51074,32.9458 4.73464,1.6919 14.25244,1.8607 19.69492,0.3493 v 0 c 11.4554,-3.1813 24.45391,-16.6451 33.45585,-34.6526 3.16931,-6.3399 5.80197,-10.1558 7.87651,-11.4174 5.9663,-3.6283 9.61705,-15.8065 6.49005,-21.6493 -0.92586,-1.73 -0.75893,-4.6277 0.71726,-12.4701 1.55498,-8.2609 1.70955,-11.4604 0.80978,-16.7132 -1.51106,-8.8215 -5.17461,-16.9439 -11.28562,-25.0191 -2.81196,-3.7157 -5.11286,-7.5427 -5.11286,-8.5044 0,-0.9617 1.02,-3.8552 2.26653,-6.4301 1.24653,-2.575 2.08312,-4.8659 1.8588,-5.0901 -0.22434,-0.2244 -3.4349,0.8085 -7.13393,2.2949 -8.02854,3.2262 -8.72186,2.8752 -11.42153,-5.7759 -2.01645,-6.4618 -2.74416,-9.0868 -3.55225,-9.1457 z m 4.22249,58.4502 c 0.0656,0 0.12269,0.011 0.17052,0.029 0.76605,0.294 2.02055,2.6344 2.78744,5.2012 2.16067,7.2318 5.21589,12.5548 10.36577,18.0604 2.59815,2.7777 4.72374,6.0317 4.72374,7.2311 0,1.1993 -1.22312,6.4019 -2.71817,11.5611 -10.27489,35.4565 -28.18802,54.2386 -48.38102,50.7287 -11.96581,-2.0799 -22.3342,-11.7808 -31.01465,-29.0179 -6.791,-13.4851 -13.60146,-38.4631 -11.15435,-40.9102 0.6359,-0.6358 4.10794,-1.0145 7.81552,-0.8526 8.20569,0.3583 24.83694,-1.4691 33.46773,-3.6773 9.51952,-2.4354 20.93574,-8.2681 27.19112,-13.8922 2.8484,-2.561 5.7621,-4.4742 6.74635,-4.4612 z"
         id="path5079"
         inkscape:connector-curvature="0" />
      <path
         style="opacity:1;vector-effect:none;fill:#000000;fill-opacity:1;fill-rule:evenodd;stroke:none;stroke-width:6;stroke-linecap:round;stroke-linejoin:round;stroke-miterlimit:4;stroke-dasharray:none;stroke-dashoffset:0;stroke-opacity:1;paint-order:fill markers stroke"
         d="m 578.95714,1165.7037 c -8.54954,0.019 -17.10762,1.9353 -24.94423,5.8565 -24.3322,12.1751 -36.35465,36.8133 -31.93344,65.442 1.08699,7.0382 1.03286,9.6689 -0.33125,16.1721 -1.80851,8.6222 -5.47675,16.6651 -10.48515,22.9888 -1.82031,2.2983 -3.02882,4.4596 -2.68563,4.8028 1.26802,1.268 17.65988,4.6457 28.5745,5.888 11.12549,1.2663 11.31554,1.336 16.61345,6.0679 11.7248,10.4724 24.67102,13.472 37.47162,8.6827 3.5743,-1.3374 8.31289,-4.3954 11.92278,-7.6947 l 5.99086,-5.4751 11.43029,-1.3865 c 12.3041,-1.4922 26.93887,-4.3875 29.18118,-5.7732 1.03558,-0.6401 0.48742,-1.8765 -2.17818,-4.9124 -4.56959,-5.2044 -9.30373,-15.3398 -10.91663,-23.3707 -0.96311,-4.7959 -0.97266,-9.1439 -0.0408,-18.1973 2.46398,-23.93 -2.8394,-39.476 -18.37407,-53.8613 -10.82045,-10.0199 -25.04609,-15.2608 -39.29528,-15.2296 z m -10.57405,44.0459 c 0.0473,0 0.0921,0.01 0.13436,0.023 1.79231,0.5975 3.22397,7.1349 2.59469,11.8484 -0.48742,3.6503 -0.24339,4.2031 2.30888,5.2327 3.96513,1.5998 36.7442,1.5967 44.65619,0 9.76601,-1.9756 10.32881,-0.2642 5.92421,18.0222 -8.83992,36.7006 -28.92584,58.4549 -50.33232,54.513 -16.30432,-3.0024 -31.43242,-24.1333 -39.12942,-54.6561 -3.7919,-15.0369 -3.6771,-18.3673 0.73692,-21.3915 1.9159,-1.3128 4.97472,-3.7779 6.79752,-5.4782 2.85509,-2.6634 3.49578,-2.8728 4.62608,-1.511 0.95549,1.1514 1.02499,2.6202 0.2558,5.4059 -1.0391,3.7631 -1.00492,3.8245 2.12648,3.8245 5.92629,0 12.6348,-5.1753 16.41448,-12.6628 0.92456,-1.8315 2.17676,-3.1892 2.88613,-3.1662 z"
         id="path5077"
         inkscape:connector-curvature="0" />
      <path
         style="opacity:1;vector-effect:none;fill:#000000;fill-opacity:1;fill-rule:evenodd;stroke:none;stroke-width:6;stroke-linecap:round;stroke-linejoin:round;stroke-miterlimit:4;stroke-dasharray:none;stroke-dashoffset:0;stroke-opacity:1;paint-order:fill markers stroke"
         d="m 915.78824,1166.0629 c -7.57579,0 -15.15174,0.843 -19.743,2.5295 -17.47551,6.4192 -29.43645,20.0885 -34.38961,39.3005 -0.91194,3.5372 -2.36829,14.3897 -3.23599,24.1168 -2.01012,22.5333 -4.3543,78.281 -3.39669,80.7765 0.67188,1.7509 1.12432,1.6816 5.87097,-0.9018 2.82845,-1.5394 8.35549,-5.5774 12.28243,-8.9731 3.927,-3.3955 8.16237,-7.473 9.41184,-9.0614 2.96942,-3.775 4.58351,-3.6449 10.0185,0.8087 2.48142,2.0333 7.14497,4.9227 10.3632,6.4208 10.95005,5.097 25.46181,2.9011 35.04644,-5.303 2.40501,-2.0586 5.01994,-3.7314 5.81049,-3.7171 0.7906,0.014 5.19293,3.2993 9.78339,7.3003 7.81577,6.8121 16.86193,13.0084 21.57336,14.7769 1.99229,0.7478 2.03068,0.1527 1.33223,-20.7507 -0.92718,-27.7488 -3.5974,-68.3861 -5.12424,-77.99 -3.70432,-23.3005 -16.1704,-39.5706 -35.86085,-46.8034 -4.59129,-1.6865 -12.16671,-2.5295 -19.74247,-2.5295 z m 22.718,34.8867 c 0.0503,0 0.10181,0 0.15398,0 1.07331,0.071 2.529,1.4857 3.59048,3.9946 0.9353,2.2107 2.2061,7.472 2.82411,11.6918 l 1.12398,7.6724 5.96344,0.7209 c 3.28017,0.3965 7.11168,1.4573 8.51421,2.3575 2.32736,1.4939 2.49867,2.1652 1.96165,7.6848 -1.63346,16.7888 -11.82889,40.5636 -22.29168,51.9818 -9.46753,10.3322 -19.07095,14.3155 -29.76043,12.3445 -17.02592,-3.1394 -34.05003,-27.7312 -40.32004,-58.244 -2.29143,-11.1511 -1.80814,-12.777 4.5217,-15.2192 4.30591,-1.6614 7.82749,-1.9302 22.77896,-1.739 9.72711,0.1243 19.24216,0.5059 21.14497,0.8481 2.99577,0.5385 4.13184,0.01 8.46976,-3.9776 5.09889,-4.6814 10.01456,-13.3682 10.0335,-17.7302 0.007,-1.58 0.53719,-2.3439 1.29141,-2.3874 z"
         id="path5075"
         inkscape:connector-curvature="0" />
      <path
         style="opacity:1;vector-effect:none;fill:#000000;fill-opacity:1;fill-rule:evenodd;stroke:none;stroke-width:6;stroke-linecap:round;stroke-linejoin:round;stroke-miterlimit:4;stroke-dasharray:none;stroke-dashoffset:0;stroke-opacity:1;paint-order:fill markers stroke"
         d="m 785.42181,1312.7617 -4.96403,5.1082 c -6.6829,6.8768 -16.30402,9.9797 -30.94281,9.9797 -14.61836,0 -24.28494,-3.1118 -30.96194,-9.9668 l -4.95421,-5.086 -5.17748,1.3209 c -2.84768,0.7264 -5.36752,1.5099 -5.59914,1.7415 -0.89739,0.8974 7.82884,14.2018 13.22764,20.1677 3.32293,3.6719 11.30279,10.0725 19.23396,15.4265 l 13.55524,9.1503 4.89323,-2.8293 c 2.69129,-1.5559 8.39298,-5.2289 12.67002,-8.1623 4.27707,-2.9334 9.90158,-7.204 12.499,-9.4903 5.51796,-4.8572 17.16503,-21.5144 16.48013,-23.5691 -0.25858,-0.7757 -2.60506,-1.9462 -5.21468,-2.6009 z"
         id="path5067"
         inkscape:connector-curvature="0" />
      <path
         style="opacity:1;vector-effect:none;fill:#000000;fill-opacity:1;fill-rule:evenodd;stroke:none;stroke-width:6;stroke-linecap:round;stroke-linejoin:round;stroke-miterlimit:4;stroke-dasharray:none;stroke-dashoffset:0;stroke-opacity:1;paint-order:fill markers stroke"
         d="m 809.99293,1320.1194 c -0.36275,0 -0.66024,0.043 -0.88366,0.1292 -0.782,0.3001 -3.49075,4.324 -6.01927,8.9421 -6.49917,11.8701 -16.46674,21.3841 -35.56114,33.9441 -8.66208,5.6978 -16.77858,10.3596 -18.03664,10.3596 -1.25807,0 -9.36414,-4.6394 -18.01387,-10.3099 -19.00203,-12.4573 -29.83575,-22.8628 -35.93115,-34.5106 -2.2568,-4.3126 -4.76599,-8.0954 -5.57589,-8.4062 -3.7414,-1.4357 -26.11174,8.4778 -31.36604,13.8999 -2.6633,2.7484 -3.93664,5.8392 -6.48694,15.7458 -6.1126,23.7446 -10.16324,52.2761 -11.41274,80.3894 -0.55779,12.5488 -0.43715,16.9913 -2.52956,18.5338 h 222.08876 c -0.47294,-0.3579 -0.64474,-0.8828 -0.80253,-1.6521 -0.27205,-1.3264 -1.02516,-11.3349 -1.67381,-22.241 -2.50672,-42.1482 -10.56812,-83.6623 -17.68935,-91.0953 -4.55732,-4.7567 -24.66499,-13.7532 -30.10617,-13.7288 z"
         id="rect5062"
         inkscape:connector-curvature="0" />
    </g>
  </g>
</svg>
