<?xml version="1.0" encoding="UTF-8" standalone="no"?>
<!-- Created with Inkscape (http://www.inkscape.org/) -->

<svg
   xmlns:dc="http://purl.org/dc/elements/1.1/"
   xmlns:cc="http://creativecommons.org/ns#"
   xmlns:rdf="http://www.w3.org/1999/02/22-rdf-syntax-ns#"
   xmlns:svg="http://www.w3.org/2000/svg"
   xmlns="http://www.w3.org/2000/svg"
   xmlns:sodipodi="http://sodipodi.sourceforge.net/DTD/sodipodi-0.dtd"
   xmlns:inkscape="http://www.inkscape.org/namespaces/inkscape"
   width="10cm"
   height="10cm"
   viewBox="0 0 100 99.999997"
   version="1.1"
   id="svg6913"
   inkscape:version="0.92.1 r15371"
   sodipodi:docname="company-values.svg">
  <defs
     id="defs6907" />
  <sodipodi:namedview
     id="base"
     pagecolor="#ffffff"
     bordercolor="#666666"
     borderopacity="1.0"
     inkscape:pageopacity="0.0"
     inkscape:pageshadow="2"
     inkscape:zoom="1.7482473"
     inkscape:cx="204.10649"
     inkscape:cy="235.53216"
     inkscape:document-units="mm"
     inkscape:current-layer="layer1"
     showgrid="false"
     units="cm"
     showguides="true"
     inkscape:guide-bbox="true"
     inkscape:window-width="1920"
     inkscape:window-height="1017"
     inkscape:window-x="-8"
     inkscape:window-y="-8"
     inkscape:window-maximized="1">
    <sodipodi:guide
       position="49.979401,32.874151"
       orientation="1,0"
       id="guide7481"
       inkscape:locked="false" />
    <sodipodi:guide
       position="72.162772,49.9794"
       orientation="0,1"
       id="guide7483"
       inkscape:locked="false" />
    <sodipodi:guide
       position="100.87239,94.801151"
       orientation="0,1"
       id="guide7485"
       inkscape:locked="false" />
    <sodipodi:guide
       position="94.824775,101.51023"
       orientation="1,0"
       id="guide7487"
       inkscape:locked="false" />
    <sodipodi:guide
       position="101.44549,5.2117557"
       orientation="0,1"
       id="guide7489"
       inkscape:locked="false" />
    <sodipodi:guide
       position="5.1971725,103.84896"
       orientation="1,0"
       id="guide7491"
       inkscape:locked="false" />
    <inkscape:grid
       type="xygrid"
       id="grid7493" />
  </sodipodi:namedview>
  <metadata
     id="metadata6910">
    <rdf:RDF>
      <cc:Work
         rdf:about="">
        <dc:format>image/svg+xml</dc:format>
        <dc:type
           rdf:resource="http://purl.org/dc/dcmitype/StillImage" />
        <dc:title></dc:title>
      </cc:Work>
    </rdf:RDF>
  </metadata>
  <g
     inkscape:label="Layer 1"
     inkscape:groupmode="layer"
     id="layer1"
     transform="translate(0,-197.00002)">
    <g
       id="g5916"
       transform="matrix(0.22917053,0,0,0.22917053,-61.900599,147.74284)">
      <path
         id="path5876"
         transform="scale(0.26458333)"
         d="m 1223.8105,1687.4883 a 208.09142,208.09142 0 0 0 -120.7246,188.6055 208.09142,208.09142 0 0 0 14.3379,75.3124 707.10671,466.69047 0 0 0 256.3828,31.7637 707.10671,466.69047 0 0 0 256.8125,-32.3711 208.09142,208.09142 0 0 0 13.9082,-74.705 208.09142,208.09142 0 0 0 -120.7207,-188.5938 224.28572,224.28572 0 0 1 -150,57.877 224.28572,224.28572 0 0 1 -149.9961,-57.8887 z"
         style="opacity:1;vector-effect:none;fill:#000000;fill-opacity:1;fill-rule:nonzero;stroke:none;stroke-width:43.35988235;stroke-linecap:round;stroke-linejoin:round;stroke-miterlimit:4;stroke-dasharray:none;stroke-dashoffset:0;stroke-opacity:1;paint-order:normal"
         inkscape:connector-curvature="0" />
      <circle
         transform="scale(1,-1)"
         r="52.916664"
         cy="-388.47025"
         cx="365.125"
         id="path5892"
         style="opacity:1;vector-effect:none;fill:#000000;fill-opacity:1;fill-rule:nonzero;stroke:none;stroke-width:8.46500015;stroke-linecap:round;stroke-linejoin:round;stroke-miterlimit:4;stroke-dasharray:none;stroke-dashoffset:0;stroke-opacity:1;paint-order:normal" />
      <path
         inkscape:connector-curvature="0"
         style="opacity:1;vector-effect:none;fill:#000000;fill-opacity:1;fill-rule:nonzero;stroke:none;stroke-width:11.47230244;stroke-linecap:round;stroke-linejoin:round;stroke-miterlimit:4;stroke-dasharray:none;stroke-dashoffset:0;stroke-opacity:1;paint-order:normal"
         d="m 573.26414,444.96937 a 55.057521,55.057521 0 0 0 -31.94171,49.90187 55.057521,55.057521 0 0 0 3.79357,19.92641 187.08865,123.47852 0 0 0 67.83461,8.40414 187.08865,123.47852 0 0 0 67.94831,-8.56485 55.057521,55.057521 0 0 0 3.67988,-19.7657 55.057521,55.057521 0 0 0 -31.94069,-49.89878 59.342263,59.342263 0 0 1 -39.6875,15.31329 59.342263,59.342263 0 0 1 -39.68647,-15.31638 z"
         id="path5897" />
      <circle
         style="opacity:1;vector-effect:none;fill:#000000;fill-opacity:1;fill-rule:nonzero;stroke:none;stroke-width:8.46500015;stroke-linecap:round;stroke-linejoin:round;stroke-miterlimit:4;stroke-dasharray:none;stroke-dashoffset:0;stroke-opacity:1;paint-order:normal"
         id="circle5899"
         cx="614.58929"
         cy="-386.95834"
         r="52.916664"
         transform="scale(1,-1)" />
      <path
         inkscape:connector-curvature="0"
         id="path5901"
         d="m 494.39868,265.26185 c -51.20108,0 -97.09539,23.15562 -127.76381,59.54367 h 34.95417 c 24.86416,-21.47078 57.28837,-34.43866 92.80964,-34.43866 35.52125,0 67.94546,12.96791 92.80962,34.43866 h 34.95416 C 591.49407,288.41757 545.59963,265.26185 494.39868,265.26185 Z M 360.49532,532.09098 c 30.48693,40.80926 79.16255,67.27737 133.90336,67.27737 54.74082,0 103.41643,-26.46811 133.90337,-67.27737 h -32.82816 c -25.71843,26.05243 -61.47146,42.17393 -101.07521,42.17393 -39.60374,0 -75.35626,-16.1215 -101.07469,-42.17393 z"
         style="color:#000000;font-style:normal;font-variant:normal;font-weight:normal;font-stretch:normal;font-size:medium;line-height:normal;font-family:sans-serif;font-variant-ligatures:normal;font-variant-position:normal;font-variant-caps:normal;font-variant-numeric:normal;font-variant-alternates:normal;font-feature-settings:normal;text-indent:0;text-align:start;text-decoration:none;text-decoration-line:none;text-decoration-style:solid;text-decoration-color:#000000;letter-spacing:normal;word-spacing:normal;text-transform:none;writing-mode:lr-tb;direction:ltr;text-orientation:mixed;dominant-baseline:auto;baseline-shift:baseline;text-anchor:start;white-space:normal;shape-padding:0;clip-rule:nonzero;display:inline;overflow:visible;visibility:visible;opacity:1;isolation:auto;mix-blend-mode:normal;color-interpolation:sRGB;color-interpolation-filters:linearRGB;solid-color:#000000;solid-opacity:1;vector-effect:none;fill:#95af28;fill-opacity:1;fill-rule:nonzero;stroke:none;stroke-width:25.10400391;stroke-linecap:round;stroke-linejoin:round;stroke-miterlimit:4;stroke-dasharray:none;stroke-dashoffset:0;stroke-opacity:1;paint-order:normal;color-rendering:auto;image-rendering:auto;shape-rendering:auto;text-rendering:auto;enable-background:accumulate" />
    </g>
  </g>
</svg>
