<?xml version="1.0" encoding="UTF-8" standalone="no"?>
<!-- Created with Inkscape (http://www.inkscape.org/) -->

<svg
   xmlns:dc="http://purl.org/dc/elements/1.1/"
   xmlns:cc="http://creativecommons.org/ns#"
   xmlns:rdf="http://www.w3.org/1999/02/22-rdf-syntax-ns#"
   xmlns:svg="http://www.w3.org/2000/svg"
   xmlns="http://www.w3.org/2000/svg"
   xmlns:sodipodi="http://sodipodi.sourceforge.net/DTD/sodipodi-0.dtd"
   xmlns:inkscape="http://www.inkscape.org/namespaces/inkscape"
   width="10cm"
   height="10cm"
   viewBox="0 0 100 99.999997"
   version="1.1"
   id="svg6913"
   inkscape:version="0.92.1 r15371"
   sodipodi:docname="company-values.svg">
  <defs
     id="defs6907" />
  <sodipodi:namedview
     id="base"
     pagecolor="#ffffff"
     bordercolor="#666666"
     borderopacity="1.0"
     inkscape:pageopacity="0.0"
     inkscape:pageshadow="2"
     inkscape:zoom="1.7482473"
     inkscape:cx="204.10649"
     inkscape:cy="235.53216"
     inkscape:document-units="mm"
     inkscape:current-layer="layer1"
     showgrid="false"
     units="cm"
     showguides="true"
     inkscape:guide-bbox="true"
     inkscape:window-width="1920"
     inkscape:window-height="1017"
     inkscape:window-x="-8"
     inkscape:window-y="-8"
     inkscape:window-maximized="1">
    <sodipodi:guide
       position="49.979401,32.874151"
       orientation="1,0"
       id="guide7481"
       inkscape:locked="false" />
    <sodipodi:guide
       position="72.162772,49.9794"
       orientation="0,1"
       id="guide7483"
       inkscape:locked="false" />
    <sodipodi:guide
       position="100.87239,94.801151"
       orientation="0,1"
       id="guide7485"
       inkscape:locked="false" />
    <sodipodi:guide
       position="94.824775,101.51023"
       orientation="1,0"
       id="guide7487"
       inkscape:locked="false" />
    <sodipodi:guide
       position="101.44549,5.2117557"
       orientation="0,1"
       id="guide7489"
       inkscape:locked="false" />
    <sodipodi:guide
       position="5.1971725,103.84896"
       orientation="1,0"
       id="guide7491"
       inkscape:locked="false" />
    <inkscape:grid
       type="xygrid"
       id="grid7493" />
  </sodipodi:namedview>
  <metadata
     id="metadata6910">
    <rdf:RDF>
      <cc:Work
         rdf:about="">
        <dc:format>image/svg+xml</dc:format>
        <dc:type
           rdf:resource="http://purl.org/dc/dcmitype/StillImage" />
        <dc:title></dc:title>
      </cc:Work>
    </rdf:RDF>
  </metadata>
  <g
     inkscape:label="Layer 1"
     inkscape:groupmode="layer"
     id="layer1"
     transform="translate(0,-197.00002)">
    <g
       id="g5785"
       transform="matrix(0.21487151,0,0,0.21487151,88.077243,123.23466)">
      <path
         id="path5173"
         d="m -305.01362,367.25572 c -8.51784,-0.057 -17.02898,2.6576 -23.12832,8.0264 -15.08649,13.2796 -18.07125,43.7878 -6.12571,62.6148 11.08832,17.4759 27.21509,23.9484 41.15615,16.5179 11.70612,-6.2393 20.82222,-18.632 23.90808,-32.5024 4.03775,-18.1488 -3.08594,-39.8583 -15.99228,-48.7382 -5.69846,-3.9206 -12.7603,-5.8711 -19.81792,-5.9185 z"
         style="opacity:1;vector-effect:none;fill:#000000;fill-opacity:1;fill-rule:evenodd;stroke:none;stroke-width:5.93328285;stroke-linecap:round;stroke-linejoin:round;stroke-miterlimit:4;stroke-dasharray:none;stroke-dashoffset:0;stroke-opacity:1;paint-order:fill markers stroke"
         inkscape:connector-curvature="0" />
      <path
         id="path5171"
         d="m -47.135321,367.49502 c -11.2332,0 -17.9238,2.6836 -24.66827,9.894 -8.35207,8.929 -12.27417,19.7698 -12.27417,33.92349 0,15.23871 7.21442,30.53701 18.37459,38.96301 11.26858,8.5079 19.81454,9.6412 30.3506,4.0256 17.06872,-9.0976 27.0225002,-29.7466 24.25432,-50.3158 -1.58858,-11.804 -4.67704,-19.2359 -10.75798,-25.8894 -7.23847,-7.9201 -13.63088,-10.6009 -25.27909,-10.6009 z"
         style="opacity:1;vector-effect:none;fill:#000000;fill-opacity:1;fill-rule:evenodd;stroke:none;stroke-width:5.93328285;stroke-linecap:round;stroke-linejoin:round;stroke-miterlimit:4;stroke-dasharray:none;stroke-dashoffset:0;stroke-opacity:1;paint-order:fill markers stroke"
         inkscape:connector-curvature="0" />
      <path
         id="path5169"
         d="m -279.89112,453.42212 c -0.99457,0 -5.7449,8.3527 -12.90619,22.6937 -6.23271,12.4815 -11.69149,22.6932 -12.13054,22.6932 -0.43902,0 -5.79913,-9.994 -11.91193,-22.209 -6.11275,-12.215 -11.83032,-22.4839 -12.70567,-22.8198 -2.49827,-0.9586 -24.52428,6.7393 -34.77723,12.1543 -15.08228,7.9655 -13.66856,0.6133 -13.99653,72.7971 -0.2607,57.3762 -0.14904,62.0317 1.52082,63.254 1.39912,1.0241 17.44848,1.3193 71.70621,1.3193 38.44691,0 70.65461,-0.2884 71.57288,-0.6408 1.44695,-0.5552 1.66968,-3.5113 1.66968,-22.1656 0,-12.771 0.40454,-21.5253 0.99478,-21.5253 0.54716,0 6.3656,5.9301 12.92995,13.1775 6.56437,7.2475 12.5752,13.1844 13.35732,13.1935 1.54836,0.018 15.58742,-13.1026 17.16898,-16.046 0.74594,-1.3883 -4.45384,-12.6677 -22.17281,-48.0984 -25.85658,-51.7028 -25.02907,-50.5078 -39.67198,-57.2699 -8.49419,-3.9226 -27.70106,-10.5078 -30.64774,-10.5078 z"
         style="opacity:1;vector-effect:none;fill:#000000;fill-opacity:1;fill-rule:evenodd;stroke:none;stroke-width:5.93328285;stroke-linecap:round;stroke-linejoin:round;stroke-miterlimit:4;stroke-dasharray:none;stroke-dashoffset:0;stroke-opacity:1;paint-order:fill markers stroke"
         inkscape:connector-curvature="0" />
      <path
         id="path5167"
         d="m -22.013341,453.42212 c -1.42822,0 -4.75102,5.696 -13.23898,22.6937 -6.23269,12.4815 -11.69149,22.6932 -12.13051,22.6932 -0.43905,0 -5.7997,-9.994 -11.91247,-22.209 -6.11278,-12.215 -11.83722,-22.4863 -12.72117,-22.8255 -1.93469,-0.7424 -22.19052,5.8402 -31.486469,10.2324 -14.57242,6.8851 -12.89539,4.4573 -38.62968,55.9155 -12.77087,25.5366 -23.21977,47.0155 -23.21977,47.7309 0,1.6807 15.90989,17.708 17.57826,17.708 0.69706,0 6.63676,-5.9374 13.19919,-13.194 6.56243,-7.2566 12.29671,-13.1941 12.74289,-13.1941 0.44617,0 0.81132,9.8797 0.81132,21.9548 0,15.7379 0.36066,22.3153 1.27383,23.2285 0.97524,0.9752 18.1103,1.2101 73.094239,1.0025 l 71.8199,-0.2707 0.27233,-64.0767 0.27184,-64.0762 -3.31867,-3.7796 c -1.95263,-2.2239 -6.89536,-5.5109 -12.00701,-7.9851 -9.1138598,-4.4114 -29.1366,-11.5486 -32.39907,-11.5486 z"
         style="opacity:1;vector-effect:none;fill:#000000;fill-opacity:1;fill-rule:evenodd;stroke:none;stroke-width:5.93328285;stroke-linecap:round;stroke-linejoin:round;stroke-miterlimit:4;stroke-dasharray:none;stroke-dashoffset:0;stroke-opacity:1;paint-order:fill markers stroke"
         inkscape:connector-curvature="0" />
      <path
         id="path5165"
         d="m -176.43543,581.13932 c -1.58956,0 -22.69319,21.5188 -22.69319,23.1397 0,1.773 20.93264,23.3025 22.6565,23.3025 0.58099,0 5.93296,-4.8598 11.89333,-10.7999 5.96036,-5.94 10.83706,-11.5498 10.83706,-12.4659 0,-1.646 -21.082,-23.1764 -22.6937,-23.1764 z"
         style="opacity:1;vector-effect:none;fill:#95af28;fill-opacity:1;fill-rule:evenodd;stroke:none;stroke-width:5.93328285;stroke-linecap:round;stroke-linejoin:round;stroke-miterlimit:4;stroke-dasharray:none;stroke-dashoffset:0;stroke-opacity:1;paint-order:fill markers stroke"
         inkscape:connector-curvature="0" />
      <path
         id="path5163"
         d="m -305.35623,618.08232 c -14.50227,0 -25.01869,6.5476 -31.07098,19.3451 -4.13514,8.74381 -5.50478,16.28899 -5.01004,27.60091 0.36393,8.32048 0.91816,10.64548 4.16719,17.47689 2.06115,4.33369 6.19974,10.55852 9.19686,13.83281 2.99715,3.27438 5.44981,6.24298 5.44981,6.59699 0,0.35401 -1.80385,0.64342 -4.00804,0.64342 -4.98055,0 -26.37578,7.10618 -36.58897,12.15268 -4.1965,2.07351 -9.247,5.43761 -11.22362,7.47601 l -3.59407,3.70629 -0.3142,27.4815 c -0.22706,19.8461 0.0288,27.89491 0.92086,28.96981 1.04047,1.2537 12.35345,1.48828 71.73878,1.48828 38.77703,0 71.25508,-0.28847 72.17335,-0.64079 1.46402,-0.56179 1.66968,-4.0658 1.66968,-28.45409 v -27.81281 l 21.63795,-43.34039 c 11.9009,-23.83729 21.63796,-43.9161 21.63796,-44.6196 0,-1.67251 -18.04158,-19.79201 -19.70681,-19.79201 -0.70369,0 -17.23796,18.76151 -36.74297,41.6925 -34.04171,40.021 -35.61016,41.69262 -39.11596,41.69262 -2.00875,0 -3.63998,-0.35632 -3.62509,-0.79172 0.0149,-0.4354 2.39734,-3.1161 5.29476,-5.9573 10.60833,-10.40281 16.01213,-26.64 13.8808,-41.71109 -1.8071,-12.77832 -4.95032,-19.70392 -12.29589,-27.09191 -7.63225,-7.6765 -13.21332,-9.9441 -24.47136,-9.9441 z"
         style="opacity:1;vector-effect:none;fill:#000000;fill-opacity:1;fill-rule:evenodd;stroke:none;stroke-width:5.93328285;stroke-linecap:round;stroke-linejoin:round;stroke-miterlimit:4;stroke-dasharray:none;stroke-dashoffset:0;stroke-opacity:1;paint-order:fill markers stroke"
         inkscape:connector-curvature="0" />
      <path
         id="rect5158"
         d="m -47.135321,618.60992 c -10.31375,0 -11.47527,0.2171 -16.73902,3.1326 -13.04346,7.2246 -20.20342,21.85569 -20.20342,41.28381 0,12.94728 5.60451,25.90088 15.23783,35.2175 2.06859,2.0007 3.76099,4.01928 3.76099,4.48598 0,1.34342 -5.75743,0.9861 -7.58195,-0.47069 -0.90887,-0.7256 -16.97305,-19.3688 -35.698079,-41.42899 -18.72503,-22.06022 -34.81516,-40.24301 -35.75595,-40.40631 -0.99489,-0.1728 -5.66514,3.6807 -11.16263,9.2102 l -9.45214,9.50689 21.85913,44.0935 21.85862,44.09292 -0.004,27.496 c -0.003,19.9838 0.3419,27.84258 1.26246,28.7631 0.95983,0.9599 18.32291,1.26658 71.688119,1.26658 38.7286202,0 71.16749,-0.28847 72.09121,-0.64079 1.46507,-0.5629 1.66968,-4.1307 1.66968,-29.16568 v -28.52542 l -3.95844,-3.74129 c -7.11845,-6.72909 -38.18149,-19.20139 -47.8224,-19.20139 -2.28883,0 -4.1615,-0.31322 -4.1615,-0.69612 0,-0.38291 2.62882,-3.4526 5.84203,-6.82131 9.91759,-10.39759 15.1860702,-25.13927 13.72216,-38.3971 -2.03755,-18.45278 -8.10337,-29.48939 -19.75538,-35.94409 -5.21528,-2.889 -6.40162,-3.1099 -16.69719,-3.1099 z"
         style="opacity:1;vector-effect:none;fill:#000000;fill-opacity:1;fill-rule:evenodd;stroke:none;stroke-width:5.93328285;stroke-linecap:round;stroke-linejoin:round;stroke-miterlimit:4;stroke-dasharray:none;stroke-dashoffset:0;stroke-opacity:1;paint-order:fill markers stroke"
         inkscape:connector-curvature="0" />
    </g>
  </g>
</svg>
