<?xml version="1.0" encoding="UTF-8" standalone="no"?>
<!-- Created with Inkscape (http://www.inkscape.org/) -->

<svg
   xmlns:dc="http://purl.org/dc/elements/1.1/"
   xmlns:cc="http://creativecommons.org/ns#"
   xmlns:rdf="http://www.w3.org/1999/02/22-rdf-syntax-ns#"
   xmlns:svg="http://www.w3.org/2000/svg"
   xmlns="http://www.w3.org/2000/svg"
   xmlns:sodipodi="http://sodipodi.sourceforge.net/DTD/sodipodi-0.dtd"
   xmlns:inkscape="http://www.inkscape.org/namespaces/inkscape"
   width="10cm"
   height="10cm"
   viewBox="0 0 100 99.999997"
   version="1.1"
   id="svg6913"
   inkscape:version="0.92.1 r15371"
   sodipodi:docname="job-specific.svg">
  <defs
     id="defs6907" />
  <sodipodi:namedview
     id="base"
     pagecolor="#ffffff"
     bordercolor="#666666"
     borderopacity="1.0"
     inkscape:pageopacity="0.0"
     inkscape:pageshadow="2"
     inkscape:zoom="1.7482473"
     inkscape:cx="89.9922"
     inkscape:cy="235.53216"
     inkscape:document-units="mm"
     inkscape:current-layer="layer1"
     showgrid="false"
     units="cm"
     showguides="true"
     inkscape:guide-bbox="true"
     inkscape:window-width="1920"
     inkscape:window-height="1017"
     inkscape:window-x="-8"
     inkscape:window-y="-8"
     inkscape:window-maximized="1">
    <sodipodi:guide
       position="49.979401,32.874151"
       orientation="1,0"
       id="guide7481"
       inkscape:locked="false" />
    <sodipodi:guide
       position="72.162772,49.9794"
       orientation="0,1"
       id="guide7483"
       inkscape:locked="false" />
    <sodipodi:guide
       position="100.87239,94.801151"
       orientation="0,1"
       id="guide7485"
       inkscape:locked="false" />
    <sodipodi:guide
       position="94.824775,101.51023"
       orientation="1,0"
       id="guide7487"
       inkscape:locked="false" />
    <sodipodi:guide
       position="101.44549,5.2117557"
       orientation="0,1"
       id="guide7489"
       inkscape:locked="false" />
    <sodipodi:guide
       position="5.1971725,103.84896"
       orientation="1,0"
       id="guide7491"
       inkscape:locked="false" />
    <inkscape:grid
       type="xygrid"
       id="grid7493" />
  </sodipodi:namedview>
  <metadata
     id="metadata6910">
    <rdf:RDF>
      <cc:Work
         rdf:about="">
        <dc:format>image/svg+xml</dc:format>
        <dc:type
           rdf:resource="http://purl.org/dc/dcmitype/StillImage" />
        <dc:title></dc:title>
      </cc:Work>
    </rdf:RDF>
  </metadata>
  <g
     inkscape:label="Layer 1"
     inkscape:groupmode="layer"
     id="layer1"
     transform="translate(0,-197.00002)">
    <g
       id="g5598"
       transform="matrix(0.74161395,0,0,0.74161395,462.26525,157.41085)">
      <path
         sodipodi:nodetypes="cccccccccccccccccccccccccc"
         inkscape:connector-curvature="0"
         id="rect4885"
         d="m -523.90155,60.51338 v 49.42589 h -63.6503 V 61.18979 h -7.5272 v 48.74948 h -0.2171 v 7.52721 h 0.2171 v 46.44779 h -0.2171 v 7.52718 h 0.2171 v 10.42887 h 7.5272 v -10.42887 h 63.6503 v 9.75241 h 7.5272 V 60.51338 Z m -63.6503,56.9531 h 63.6503 v 46.44779 h -63.6503 z"
         style="opacity:1;vector-effect:none;fill:#95af28;fill-opacity:1;fill-rule:evenodd;stroke:none;stroke-width:6.96411848;stroke-linecap:round;stroke-linejoin:round;stroke-miterlimit:4;stroke-dasharray:none;stroke-dashoffset:0;stroke-opacity:1;paint-order:fill markers stroke" />
      <path
         id="rect4915"
         d="m -583.93471,68.09785 c -1.12439,0 -2.02985,0.90546 -2.02985,2.02986 v 36.19468 c 0,1.12442 0.90546,2.02935 2.02985,2.02935 h 9.47127 c 1.1244,0 2.02985,-0.90493 2.02985,-2.02935 V 70.12771 c 0,-1.1244 -0.90545,-2.02986 -2.02985,-2.02986 z m 1.27281,2.70632 h 6.73756 c 0.42418,0 0.76584,0.34115 0.76584,0.7653 v 0.3292 c 0,0.42415 -0.34166,0.76583 -0.76584,0.76583 h -6.73756 c -0.42418,0 -0.76533,-0.34168 -0.76533,-0.76583 v -0.3292 c 0,-0.42415 0.34115,-0.7653 0.76533,-0.7653 z m 0,32.13549 h 6.73756 c 0.42418,0 0.76584,0.34116 0.76584,0.76534 v 0.32917 c 0,0.42418 -0.34166,0.76583 -0.76584,0.76583 h -6.73756 c -0.42418,0 -0.76533,-0.34165 -0.76533,-0.76583 V 103.705 c 0,-0.42418 0.34115,-0.76534 0.76533,-0.76534 z"
         style="opacity:1;vector-effect:none;fill:#000000;fill-opacity:1;fill-rule:evenodd;stroke:none;stroke-width:5.59502888;stroke-linecap:round;stroke-linejoin:round;stroke-miterlimit:4;stroke-dasharray:none;stroke-dashoffset:0;stroke-opacity:1;paint-order:fill markers stroke"
         inkscape:connector-curvature="0" />
      <path
         inkscape:connector-curvature="0"
         style="opacity:1;vector-effect:none;fill:#000000;fill-opacity:1;fill-rule:evenodd;stroke:none;stroke-width:5.59502888;stroke-linecap:round;stroke-linejoin:round;stroke-miterlimit:4;stroke-dasharray:none;stroke-dashoffset:0;stroke-opacity:1;paint-order:fill markers stroke"
         d="m -567.86705,68.09785 c -1.1244,0 -2.0298,0.90543 -2.0298,2.02983 v 36.19468 c 0,1.12445 0.9054,2.02938 2.0298,2.02938 h 9.4713 c 1.1244,0 2.0298,-0.90493 2.0298,-2.02938 V 70.12768 c 0,-1.1244 -0.9054,-2.02983 -2.0298,-2.02983 z m 1.2728,2.70629 h 6.7376 c 0.4242,0 0.7658,0.34118 0.7658,0.76533 v 0.32917 c 0,0.42418 -0.3416,0.76584 -0.7658,0.76584 h -6.7376 c -0.4242,0 -0.7653,-0.34166 -0.7653,-0.76584 v -0.32917 c 0,-0.42415 0.3411,-0.76533 0.7653,-0.76533 z m 0,32.13552 h 6.7376 c 0.4242,0 0.7658,0.34113 0.7658,0.76531 v 0.32917 c 0,0.42418 -0.3416,0.76586 -0.7658,0.76586 h -6.7376 c -0.4242,0 -0.7653,-0.34168 -0.7653,-0.76586 v -0.32917 c 0,-0.42418 0.3411,-0.76531 0.7653,-0.76531 z"
         id="path4923" />
      <path
         sodipodi:nodetypes="sssssssssssssssssssssssssss"
         id="path4925"
         d="m -554.71885,79.52491 c -1.0891,0.27943 -1.7411,1.38147 -1.4617,2.4706 l 6.3648,24.80789 c 0.2794,1.08916 1.3813,1.74069 2.4704,1.46124 l 5.5862,-1.43319 c 1.0891,-0.27943 1.7412,-1.38097 1.4618,-2.47013 l -6.3648,-24.80789 c -0.2794,-1.0891 -1.3814,-1.74114 -2.4705,-1.46171 z m 1.9054,2.3051 2.9383,-0.75385 c 0.4108,-0.10541 0.8265,0.14015 0.9319,0.551 l 0.082,0.31885 c 0.1054,0.41087 -0.1405,0.82672 -0.55141,0.93215 l -2.93829,0.75383 c -0.4109,0.10543 -0.8262,-0.14079 -0.9316,-0.55163 l -0.082,-0.31885 c -0.1054,-0.41085 0.1402,-0.82609 0.5511,-0.9315 z m 5.356,20.87605 2.9383,-0.75385 c 0.4109,-0.10541 0.8265,0.14015 0.9319,0.55102 l 0.082,0.31883 c 0.1055,0.41089 -0.1405,0.82671 -0.55141,0.93212 l -2.93829,0.75385 c -0.4108,0.10541 -0.8262,-0.14075 -0.9316,-0.55163 l -0.082,-0.31884 c -0.1054,-0.41088 0.1402,-0.82609 0.5511,-0.9315 z"
         style="opacity:1;vector-effect:none;fill:#000000;fill-opacity:1;fill-rule:evenodd;stroke:none;stroke-width:5.59502888;stroke-linecap:round;stroke-linejoin:round;stroke-miterlimit:4;stroke-dasharray:none;stroke-dashoffset:0;stroke-opacity:1;paint-order:fill markers stroke"
         inkscape:connector-curvature="0" />
      <path
         inkscape:connector-curvature="0"
         style="opacity:1;vector-effect:none;fill:#000000;fill-opacity:1;fill-rule:evenodd;stroke:none;stroke-width:5.59502888;stroke-linecap:round;stroke-linejoin:round;stroke-miterlimit:4;stroke-dasharray:none;stroke-dashoffset:0;stroke-opacity:1;paint-order:fill markers stroke"
         d="m -583.93475,121.54429 c -1.1244,0 -2.0298,0.90546 -2.0298,2.02986 v 36.19468 c 0,1.12443 0.9054,2.02935 2.0298,2.02935 h 9.4713 c 1.1244,0 2.0299,-0.90492 2.0299,-2.02935 v -36.19468 c 0,-1.1244 -0.9055,-2.02986 -2.0299,-2.02986 z m 1.2729,2.70632 h 6.7375 c 0.4242,0 0.7659,0.34115 0.7659,0.7653 v 0.3292 c 0,0.42415 -0.3417,0.76584 -0.7659,0.76584 h -6.7375 c -0.4242,0 -0.7654,-0.34169 -0.7654,-0.76584 v -0.3292 c 0,-0.42415 0.3412,-0.7653 0.7654,-0.7653 z m 0,32.1355 h 6.7375 c 0.4242,0 0.7659,0.34115 0.7659,0.76533 v 0.32917 c 0,0.42418 -0.3417,0.76583 -0.7659,0.76583 h -6.7375 c -0.4242,0 -0.7654,-0.34165 -0.7654,-0.76583 v -0.32917 c 0,-0.42418 0.3412,-0.76533 0.7654,-0.76533 z"
         id="path4927" />
      <path
         id="path4929"
         d="m -567.86705,121.54429 c -1.1244,0 -2.0298,0.90546 -2.0298,2.02986 v 36.19468 c 0,1.12443 0.9054,2.02935 2.0298,2.02935 h 9.4713 c 1.1244,0 2.0298,-0.90492 2.0298,-2.02935 v -36.19468 c 0,-1.1244 -0.9054,-2.02986 -2.0298,-2.02986 z m 1.2728,2.70632 h 6.7376 c 0.4242,0 0.7658,0.34115 0.7658,0.7653 v 0.3292 c 0,0.42415 -0.3416,0.76584 -0.7658,0.76584 h -6.7376 c -0.4242,0 -0.7653,-0.34169 -0.7653,-0.76584 v -0.3292 c 0,-0.42415 0.3411,-0.7653 0.7653,-0.7653 z m 0,32.1355 h 6.7376 c 0.4242,0 0.7658,0.34115 0.7658,0.76533 v 0.32917 c 0,0.42418 -0.3416,0.76583 -0.7658,0.76583 h -6.7376 c -0.4242,0 -0.7653,-0.34165 -0.7653,-0.76583 v -0.32917 c 0,-0.42418 0.3411,-0.76533 0.7653,-0.76533 z"
         style="opacity:1;vector-effect:none;fill:#000000;fill-opacity:1;fill-rule:evenodd;stroke:none;stroke-width:5.59502888;stroke-linecap:round;stroke-linejoin:round;stroke-miterlimit:4;stroke-dasharray:none;stroke-dashoffset:0;stroke-opacity:1;paint-order:fill markers stroke"
         inkscape:connector-curvature="0" />
      <path
         inkscape:connector-curvature="0"
         style="opacity:1;vector-effect:none;fill:#000000;fill-opacity:1;fill-rule:evenodd;stroke:none;stroke-width:5.59502888;stroke-linecap:round;stroke-linejoin:round;stroke-miterlimit:4;stroke-dasharray:none;stroke-dashoffset:0;stroke-opacity:1;paint-order:fill markers stroke"
         d="m -551.79915,121.54429 c -1.1244,0 -2.0298,0.90546 -2.0298,2.02986 v 36.19468 c 0,1.12443 0.9054,2.02935 2.0298,2.02935 h 9.4713 c 1.1244,0 2.0298,-0.90492 2.0298,-2.02935 v -36.19468 c 0,-1.1244 -0.9054,-2.02986 -2.0298,-2.02986 z m 1.2728,2.70632 h 6.7376 c 0.4242,0 0.7658,0.34115 0.7658,0.7653 v 0.3292 c 0,0.42415 -0.3416,0.76584 -0.7658,0.76584 h -6.7376 c -0.4242,0 -0.7653,-0.34169 -0.7653,-0.76584 v -0.3292 c 0,-0.42415 0.3411,-0.7653 0.7653,-0.7653 z m 0,32.1355 h 6.7376 c 0.4242,0 0.7658,0.34115 0.7658,0.76533 v 0.32917 c 0,0.42418 -0.3416,0.76583 -0.7658,0.76583 h -6.7376 c -0.4242,0 -0.7653,-0.34165 -0.7653,-0.76583 v -0.32917 c 0,-0.42418 0.3411,-0.76533 0.7653,-0.76533 z"
         id="path4931" />
      <path
         inkscape:transform-center-y="0.47838415"
         inkscape:transform-center-x="-2.8703049"
         inkscape:connector-curvature="0"
         style="opacity:1;vector-effect:none;fill:#000000;fill-opacity:1;fill-rule:evenodd;stroke:none;stroke-width:5.59502888;stroke-linecap:round;stroke-linejoin:round;stroke-miterlimit:4;stroke-dasharray:none;stroke-dashoffset:0;stroke-opacity:1;paint-order:fill markers stroke"
         d="m -544.34625,81.83001 c -1.0598,0.37566 -1.6106,1.53157 -1.235,2.59136 l 8.5568,24.13966 c 0.3757,1.05981 1.5314,1.61025 2.5912,1.2346 l 5.4357,-1.92681 c 1.0598,-0.37565 1.6108,-1.53106 1.2351,-2.5909 l -8.5567,-24.13966 c -0.3757,-1.05979 -1.5316,-1.6107 -2.5914,-1.23505 z m 2.1039,2.12556 2.8591,-1.01346 c 0.3998,-0.14174 0.8357,0.0657 0.9774,0.46548 l 0.11,0.31028 c 0.1417,0.39976 -0.066,0.83595 -0.4659,0.97766 l -2.8591,1.01346 c -0.3998,0.14174 -0.8355,-0.0664 -0.9772,-0.46614 l -0.11,-0.31028 c -0.1417,-0.39976 0.066,-0.83529 0.4657,-0.977 z m 7.2006,20.31373 2.859,-1.01346 c 0.3999,-0.14174 0.8358,0.0657 0.9775,0.46548 l 0.11,0.31028 c 0.1417,0.39978 -0.066,0.83595 -0.4659,0.97766 l -2.8591,1.01346 c -0.3998,0.14174 -0.8355,-0.0663 -0.9772,-0.46614 l -0.11,-0.31025 c -0.1417,-0.39979 0.066,-0.83532 0.4657,-0.97703 z"
         id="path4933"
         sodipodi:nodetypes="sssssssssssssssssssssssssss" />
      <path
         inkscape:connector-curvature="0"
         style="opacity:1;vector-effect:none;fill:#000000;fill-opacity:1;fill-rule:evenodd;stroke:none;stroke-width:5.59502888;stroke-linecap:round;stroke-linejoin:round;stroke-miterlimit:4;stroke-dasharray:none;stroke-dashoffset:0;stroke-opacity:1;paint-order:fill markers stroke"
         d="m -538.93215,134.53909 c -1.0891,0.27943 -1.7411,1.38147 -1.4617,2.4706 l 6.3648,24.80789 c 0.2794,1.08916 1.3813,1.74069 2.4704,1.46124 l 5.5862,-1.4332 c 1.0891,-0.27942 1.7412,-1.38096 1.4618,-2.47012 l -6.3648,-24.80789 c -0.2794,-1.0891 -1.3814,-1.74114 -2.4705,-1.46172 z m 1.9054,2.3051 2.9383,-0.75385 c 0.4108,-0.10541 0.8265,0.14015 0.9319,0.551 l 0.082,0.31887 c 0.1054,0.41085 -0.1405,0.82669 -0.5514,0.93213 l -2.9383,0.75382 c -0.4109,0.10544 -0.8262,-0.14078 -0.9316,-0.55163 l -0.082,-0.31885 c -0.1054,-0.41084 0.1402,-0.82608 0.5511,-0.93149 z m 5.356,20.87605 2.9383,-0.75385 c 0.4109,-0.10541 0.8265,0.14015 0.9319,0.55102 l 0.082,0.31882 c 0.1055,0.4109 -0.1405,0.82672 -0.5514,0.93213 l -2.9383,0.75385 c -0.4108,0.10541 -0.8262,-0.14076 -0.9316,-0.55163 l -0.082,-0.31885 c -0.1054,-0.41087 0.1402,-0.82608 0.5511,-0.93149 z"
         id="path4935"
         sodipodi:nodetypes="sssssssssssssssssssssssssss" />
    </g>
  </g>
</svg>
