<?xml version="1.0" encoding="UTF-8" standalone="no"?>
<!-- Created with Inkscape (http://www.inkscape.org/) -->

<svg
   xmlns:dc="http://purl.org/dc/elements/1.1/"
   xmlns:cc="http://creativecommons.org/ns#"
   xmlns:rdf="http://www.w3.org/1999/02/22-rdf-syntax-ns#"
   xmlns:svg="http://www.w3.org/2000/svg"
   xmlns="http://www.w3.org/2000/svg"
   xmlns:sodipodi="http://sodipodi.sourceforge.net/DTD/sodipodi-0.dtd"
   xmlns:inkscape="http://www.inkscape.org/namespaces/inkscape"
   width="10cm"
   height="10cm"
   viewBox="0 0 100 99.999997"
   version="1.1"
   id="svg6913"
   inkscape:version="0.92.1 r15371"
   sodipodi:docname="leadership.svg">
  <defs
     id="defs6907" />
  <sodipodi:namedview
     id="base"
     pagecolor="#ffffff"
     bordercolor="#666666"
     borderopacity="1.0"
     inkscape:pageopacity="0.0"
     inkscape:pageshadow="2"
     inkscape:zoom="1.7482473"
     inkscape:cx="89.9922"
     inkscape:cy="235.53216"
     inkscape:document-units="mm"
     inkscape:current-layer="layer1"
     showgrid="false"
     units="cm"
     showguides="true"
     inkscape:guide-bbox="true"
     inkscape:window-width="1920"
     inkscape:window-height="1017"
     inkscape:window-x="-8"
     inkscape:window-y="-8"
     inkscape:window-maximized="1">
    <sodipodi:guide
       position="49.979401,32.874151"
       orientation="1,0"
       id="guide7481"
       inkscape:locked="false" />
    <sodipodi:guide
       position="72.162772,49.9794"
       orientation="0,1"
       id="guide7483"
       inkscape:locked="false" />
    <sodipodi:guide
       position="100.87239,94.801151"
       orientation="0,1"
       id="guide7485"
       inkscape:locked="false" />
    <sodipodi:guide
       position="94.824775,101.51023"
       orientation="1,0"
       id="guide7487"
       inkscape:locked="false" />
    <sodipodi:guide
       position="101.44549,5.2117557"
       orientation="0,1"
       id="guide7489"
       inkscape:locked="false" />
    <sodipodi:guide
       position="5.1971725,103.84896"
       orientation="1,0"
       id="guide7491"
       inkscape:locked="false" />
    <inkscape:grid
       type="xygrid"
       id="grid7493" />
  </sodipodi:namedview>
  <metadata
     id="metadata6910">
    <rdf:RDF>
      <cc:Work
         rdf:about="">
        <dc:format>image/svg+xml</dc:format>
        <dc:type
           rdf:resource="http://purl.org/dc/dcmitype/StillImage" />
        <dc:title></dc:title>
      </cc:Work>
    </rdf:RDF>
  </metadata>
  <g
     inkscape:label="Layer 1"
     inkscape:groupmode="layer"
     id="layer1"
     transform="translate(0,-197.00002)">
    <g
       id="g5640"
       transform="matrix(0.77865316,0,0,0.77865316,-385.82928,278.31528)">
      <g
         transform="matrix(1.4833072,0,0,1.4833072,665.42587,-40.982406)"
         id="g4684">
        <g
           transform="matrix(0.38962236,0,0,0.38962236,-110.11437,-38.541812)"
           id="g4711">
          <path
             style="fill:#000000;fill-opacity:1"
             inkscape:connector-curvature="0"
             d="m 155.813,112.706 c -0.422,-1.85 -1.445,-3.597 -3.061,-5.008 -1.624,-1.401 -3.607,-2.246 -5.663,-2.557 l -33.054,-6.396 9.563,6.347 -15.097,47.324 -8.501,-35.152 -8.505,35.153 -15.09,-47.324 9.559,-6.347 -33.054,6.396 c -2.056,0.311 -4.038,1.155 -5.664,2.557 -1.616,1.411 -2.64,3.158 -3.06,5.008 l -9.8,43.046 18.487,6.415 c 6.137,6.38 23.317,11.073 43.922,11.52 h 3.205 3.203 c 20.605,-0.446 37.783,-5.14 43.922,-11.52 l 18.488,-6.415 z"
             id="path4703" />
          <polygon
             style="fill:#000000;fill-opacity:1"
             points="92.381,106.279 100,117.264 107.621,106.279 100,103.551 "
             id="polygon4705" />
          <path
             style="fill:#95af28;fill-opacity:1"
             inkscape:connector-curvature="0"
             d="m 128.289,61.162 c 0,-19.537 -8.04,-34.848 -28.289,-34.848 -20.251,0 -28.287,15.312 -28.287,34.848 -2.118,1.105 -3.509,3.698 -1.429,9.255 1.049,2.79 2.898,5.128 4.467,6.352 5.771,14.368 17.12,25.46 25.249,25.46 8.129,0 19.479,-11.092 25.247,-25.46 1.571,-1.224 3.417,-3.563 4.469,-6.352 2.08,-5.558 0.69,-8.15 -1.427,-9.255 z"
             id="path4707" />
          <path
             style="fill:#000000;fill-opacity:1"
             inkscape:connector-curvature="0"
             d="M 31.956,145.935 C 22.52,144.82 15.082,142.27 11.987,139.054 L 0,134.894 6.354,106.985 c 0.273,-1.199 0.938,-2.333 1.985,-3.246 1.054,-0.908 2.339,-1.458 3.672,-1.658 l 23.215,-5.317 c -3.493,-2.987 -6.884,-7.671 -9.053,-13.08 -1.018,-0.792 -2.217,-2.308 -2.898,-4.118 -1.35,-3.601 -0.448,-5.282 0.926,-6 0,-12.666 5.208,-22.593 18.339,-22.593 h 0.003 c 13.128,0 18.339,9.927 18.339,22.593 1.374,0.718 2.276,2.399 0.928,6 -0.682,1.81 -1.881,3.326 -2.899,4.118 -2.169,5.408 -5.561,10.092 -9.053,13.08 l 10.265,2.352 -7.991,1.545 c -2.95,0.46 -5.667,1.705 -7.875,3.612 -2.295,2.005 -3.855,4.571 -4.506,7.423 z m 161.69,-38.951 c -0.275,-1.199 -0.938,-2.333 -1.985,-3.246 -1.052,-0.908 -2.337,-1.458 -3.672,-1.658 l -23.214,-5.317 c 3.493,-2.987 6.883,-7.671 9.055,-13.08 1.019,-0.792 2.215,-2.308 2.896,-4.118 1.35,-3.601 0.448,-5.282 -0.925,-6 0,-12.666 -5.214,-22.593 -18.343,-22.593 v 0 c -13.13,0 -18.341,9.927 -18.341,22.593 -1.372,0.718 -2.275,2.399 -0.925,6 0.679,1.81 1.878,3.326 2.896,4.118 2.171,5.408 5.562,10.092 9.055,13.08 l -10.267,2.352 7.991,1.545 c 2.948,0.46 5.667,1.705 7.856,3.594 2.314,2.022 3.871,4.589 4.522,7.437 l 7.796,34.244 c 9.436,-1.115 16.874,-3.665 19.97,-6.881 l 11.986,-4.16 z"
             id="path4709" />
        </g>
      </g>
    </g>
  </g>
</svg>
