<?xml version="1.0" encoding="UTF-8" standalone="no"?>
<!-- Created with Inkscape (http://www.inkscape.org/) -->

<svg
   xmlns:dc="http://purl.org/dc/elements/1.1/"
   xmlns:cc="http://creativecommons.org/ns#"
   xmlns:rdf="http://www.w3.org/1999/02/22-rdf-syntax-ns#"
   xmlns:svg="http://www.w3.org/2000/svg"
   xmlns="http://www.w3.org/2000/svg"
   xmlns:sodipodi="http://sodipodi.sourceforge.net/DTD/sodipodi-0.dtd"
   xmlns:inkscape="http://www.inkscape.org/namespaces/inkscape"
   width="10cm"
   height="10cm"
   viewBox="0 0 100 99.999997"
   version="1.1"
   id="svg6913"
   inkscape:version="0.92.1 r15371"
   sodipodi:docname="ownership.svg">
  <defs
     id="defs6907" />
  <sodipodi:namedview
     id="base"
     pagecolor="#ffffff"
     bordercolor="#666666"
     borderopacity="1.0"
     inkscape:pageopacity="0.0"
     inkscape:pageshadow="2"
     inkscape:zoom="1.7482473"
     inkscape:cx="89.9922"
     inkscape:cy="235.53216"
     inkscape:document-units="mm"
     inkscape:current-layer="layer1"
     showgrid="false"
     units="cm"
     showguides="true"
     inkscape:guide-bbox="true"
     inkscape:window-width="1920"
     inkscape:window-height="1017"
     inkscape:window-x="-8"
     inkscape:window-y="-8"
     inkscape:window-maximized="1">
    <sodipodi:guide
       position="49.979401,32.874151"
       orientation="1,0"
       id="guide7481"
       inkscape:locked="false" />
    <sodipodi:guide
       position="72.162772,49.9794"
       orientation="0,1"
       id="guide7483"
       inkscape:locked="false" />
    <sodipodi:guide
       position="100.87239,94.801151"
       orientation="0,1"
       id="guide7485"
       inkscape:locked="false" />
    <sodipodi:guide
       position="94.824775,101.51023"
       orientation="1,0"
       id="guide7487"
       inkscape:locked="false" />
    <sodipodi:guide
       position="101.44549,5.2117557"
       orientation="0,1"
       id="guide7489"
       inkscape:locked="false" />
    <sodipodi:guide
       position="5.1971725,103.84896"
       orientation="1,0"
       id="guide7491"
       inkscape:locked="false" />
    <inkscape:grid
       type="xygrid"
       id="grid7493" />
  </sodipodi:namedview>
  <metadata
     id="metadata6910">
    <rdf:RDF>
      <cc:Work
         rdf:about="">
        <dc:format>image/svg+xml</dc:format>
        <dc:type
           rdf:resource="http://purl.org/dc/dcmitype/StillImage" />
        <dc:title></dc:title>
      </cc:Work>
    </rdf:RDF>
  </metadata>
  <g
     inkscape:label="Layer 1"
     inkscape:groupmode="layer"
     id="layer1"
     transform="translate(0,-197.00002)">
    <g
       id="g5616"
       transform="matrix(0.64274066,0,0,0.64274066,-52.225581,316.10711)">
      <rect
         y="-177.22272"
         x="163.30759"
         height="114.22969"
         width="3.8413174"
         id="rect4751"
         style="opacity:1;vector-effect:none;fill:#000000;fill-opacity:1;fill-rule:evenodd;stroke:none;stroke-width:39.82991409;stroke-linecap:round;stroke-linejoin:round;stroke-miterlimit:4;stroke-dasharray:none;stroke-dashoffset:0;stroke-opacity:1;paint-order:fill markers stroke" />
      <path
         inkscape:connector-curvature="0"
         id="path4753"
         d="m 173.50351,-174.45602 c -2.2047,0.0106 -4.64418,0.10964 -5.42137,0.22014 -0.92236,0.13114 -1.2682,0.14849 -1.62989,-0.0863 v 30.58056 l 1.91823,-0.43822 c 3.6521,-0.83496 7.85667,-1.25859 10.91407,-1.09916 3.6254,0.18904 5.84731,0.61137 12.02253,2.2841 2.68319,0.72682 5.89785,1.45757 7.14375,1.62419 2.29539,0.30699 7.67953,0.16154 8.31784,-0.22479 0.24619,-0.14899 -0.7134,-2.09068 -3.56619,-7.21558 -2.14662,-3.8563 -3.91125,-7.16752 -3.92226,-7.35821 -0.0109,-0.19068 1.64486,-3.51669 3.67937,-7.39128 2.03441,-3.87459 3.66501,-7.07954 3.62199,-7.12204 -0.0425,-0.0425 -0.78436,0.0388 -1.64846,0.18035 -2.29409,0.37568 -6.77587,0.31522 -9.50899,-0.12816 -1.30969,-0.21246 -4.52435,-0.93126 -7.14375,-1.59732 -7.09449,-1.804 -10.05898,-2.25098 -14.77687,-2.22828 z m -7.05126,30.7144 v 5.75107 c 0.0172,-0.97326 0.023,-1.68465 0.003,-1.69241 v -2.02933 z"
         style="fill:#95af28;fill-opacity:1;stroke-width:0.26458332" />
      <path
         inkscape:connector-curvature="0"
         id="path4747"
         d="m 136.35545,-150.10449 c -1.37851,-0.008 -2.7709,0.20835 -3.75891,0.65267 -1.54189,0.69329 -3.51319,2.59321 -4.31869,4.16202 -2.5881,5.04071 0.2204,11.22282 5.77951,12.7217 1.63989,0.4422 2.5378,0.43356 4.3946,-0.0424 2.8817,-0.73863 5.149,-2.79328 6.22289,-5.63893 0.7462,-1.97715 0.6201,-4.85563 -0.29721,-6.78926 -0.79568,-1.67714 -2.64398,-3.53414 -4.34858,-4.36872 -0.9306,-0.45576 -2.29521,-0.6889 -3.67361,-0.69711 z m 30.09686,12.11399 c -1.21767,0.0589 -3.13987,0.85472 -3.13987,0.85472 l -10.58338,4.70049 -10.58331,4.70049 -6.16029,0.0134 c -4.56811,0.01 -6.38022,0.10577 -7.01151,0.37207 -1.37909,0.58166 -13.2079,8.09585 -14.15159,8.98963 -0.96872,0.91742 -1.50601,2.49272 -1.27071,3.72432 0.086,0.44977 2.81821,4.86565 6.0715,9.81335 5.3907,8.19836 6.0189,9.04925 7.08691,9.5989 l 1.172,0.60306 -1.38911,13.023 c -2.3907,22.42082 -2.3504,21.95171 -1.98229,23.18049 0.60831,2.03034 2.4103,3.51994 4.7729,3.946 l 1.01949,0.18399 -8.8366,7.52822 c -4.86029,4.14043 -9.0305,7.74207 -9.26719,8.00364 -0.414,0.45747 1.16559,0.47543 41.6058,0.47543 41.23717,0 42.02655,-0.009 41.51474,-0.50025 -0.28699,-0.27519 -6.29642,-5.41046 -13.35423,-11.41169 -7.05766,-6.00122 -13.27878,-11.33681 -13.82448,-11.85664 l -0.99219,-0.94517 -3.8349,-3.11142 -4.06537,-3.47731 c -3.55889,-3.04361 -4.00407,-3.51084 -3.57188,-3.74809 0.27149,-0.14909 1.04511,-0.80711 1.71927,-1.46193 1.82081,-1.76914 1.86856,-2.18149 1.76786,-15.40839 -0.0929,-12.20021 -0.0707,-12.01656 -1.68568,-13.93196 -0.41625,-0.49365 -1.23815,-1.11624 -1.82624,-1.38338 -1.7544,-0.79689 -2.9841,-0.64033 -6.49322,0.82579 -1.74148,0.7276 -3.2281,1.32291 -3.30308,1.32291 -0.075,0 -0.13592,-3.78024 -0.13491,-8.40051 v -8.40052 l 8.7798,-3.89693 c 4.82875,-2.14324 8.81655,-3.85909 8.86256,-3.81319 h 0.003 l 3.78372,-1.67588 1.05064,-0.66353 c 1.30117,-0.82137 1.94746,-2.01638 1.95746,-3.59719 0.006,-1.54251 -0.74625,-2.85968 -2.02676,-3.5512 l -0.97978,-0.52918 c -0.17364,-0.0837 -0.41714,-0.10918 -0.69812,-0.0956 z m -18.61545,46.06126 v 7.17992 c 0,6.99098 0.019,7.21452 0.62838,8.52299 0.65831,1.41365 1.45593,2.19705 2.8076,2.75696 0.44802,0.18555 0.78052,0.42508 0.73851,0.53226 -0.042,0.10719 -2.63581,2.37564 -5.76451,5.04103 v 0 c -3.12859,2.66539 -6.8494,5.84224 -8.2682,7.05951 -1.41888,1.21732 -2.57939,2.05798 -2.57857,1.86811 0,-0.40306 2.55587,-25.63116 2.79619,-27.61744 l 0.1623,-1.34305 4.7376,-1.99988 z m 7.4993,25.95139 c 0.1058,-0.10578 16.50044,13.71367 20.53883,17.31264 0.59492,0.53017 -3.46326,-1.23272 -7.04866,-3.06184 l -1.05677,-0.53948 -3.68403,2.096 c -2.0261,1.15279 -3.76537,2.09709 -3.86435,2.09907 -0.21902,0.003 0.0246,0.83304 -2.73835,-9.34516 -1.25728,-4.6319 -2.22367,-8.48442 -2.14667,-8.56123 z"
         style="fill:#000000;stroke-width:0.26458332" />
    </g>
  </g>
</svg>
