<?xml version="1.0" encoding="UTF-8" standalone="no"?>
<!-- Created with Inkscape (http://www.inkscape.org/) -->

<svg
   xmlns:dc="http://purl.org/dc/elements/1.1/"
   xmlns:cc="http://creativecommons.org/ns#"
   xmlns:rdf="http://www.w3.org/1999/02/22-rdf-syntax-ns#"
   xmlns:svg="http://www.w3.org/2000/svg"
   xmlns="http://www.w3.org/2000/svg"
   xmlns:sodipodi="http://sodipodi.sourceforge.net/DTD/sodipodi-0.dtd"
   xmlns:inkscape="http://www.inkscape.org/namespaces/inkscape"
   width="10cm"
   height="10cm"
   viewBox="0 0 100 99.999997"
   version="1.1"
   id="svg6913"
   inkscape:version="0.92.1 r15371"
   sodipodi:docname="problemsoliving-icon.svg">
  <defs
     id="defs6907" />
  <sodipodi:namedview
     id="base"
     pagecolor="#ffffff"
     bordercolor="#666666"
     borderopacity="1.0"
     inkscape:pageopacity="0.0"
     inkscape:pageshadow="2"
     inkscape:zoom="2.4723951"
     inkscape:cx="55.459971"
     inkscape:cy="122.58668"
     inkscape:document-units="mm"
     inkscape:current-layer="layer1"
     showgrid="false"
     units="cm"
     showguides="true"
     inkscape:guide-bbox="true"
     inkscape:window-width="1920"
     inkscape:window-height="1017"
     inkscape:window-x="-8"
     inkscape:window-y="-8"
     inkscape:window-maximized="1">
    <sodipodi:guide
       position="49.979401,32.874151"
       orientation="1,0"
       id="guide7481"
       inkscape:locked="false" />
    <sodipodi:guide
       position="72.162772,49.9794"
       orientation="0,1"
       id="guide7483"
       inkscape:locked="false" />
    <sodipodi:guide
       position="100.87239,94.801151"
       orientation="0,1"
       id="guide7485"
       inkscape:locked="false" />
    <sodipodi:guide
       position="94.824775,101.51023"
       orientation="1,0"
       id="guide7487"
       inkscape:locked="false" />
    <sodipodi:guide
       position="101.44549,5.2117557"
       orientation="0,1"
       id="guide7489"
       inkscape:locked="false" />
    <sodipodi:guide
       position="5.1971725,103.84896"
       orientation="1,0"
       id="guide7491"
       inkscape:locked="false" />
    <inkscape:grid
       type="xygrid"
       id="grid7493" />
  </sodipodi:namedview>
  <metadata
     id="metadata6910">
    <rdf:RDF>
      <cc:Work
         rdf:about="">
        <dc:format>image/svg+xml</dc:format>
        <dc:type
           rdf:resource="http://purl.org/dc/dcmitype/StillImage" />
        <dc:title></dc:title>
      </cc:Work>
    </rdf:RDF>
  </metadata>
  <g
     inkscape:label="Layer 1"
     inkscape:groupmode="layer"
     id="layer1"
     transform="translate(0,-197.00002)">
    <g
       id="g9911"
       transform="matrix(0.07391033,-0.07391033,0.07391033,0.07391033,16.58871,247.31255)">
      <path
         inkscape:connector-curvature="0"
         id="path9862"
         d="m -47.815102,-105.49254 c -1.4874,0 -2.6852,1.198 -2.6852,2.6855 l -5.3e-4,269.1294 c 0,1.4878 1.1977,2.68531 2.6852,2.68531 h 103.1978 c -0.069,-0.082 -0.074,-0.089 -0.8895,-0.93401 -8.9252,-8.0536 -14.0996,-19.5503 -14.1179,-31.6947 0,-23.6281 19.15421,-42.782597 42.7818,-42.782297 23.628102,-2.6e-4 42.782312,19.154197 42.782312,42.782297 -0.014,11.2967 -4.49051,22.0335 -12.29731,29.96139 -1.30328,1.3203 -1.8261,1.77591 -2.5688,2.66732 h 109.18821 c 0.5102,0 0.98449,-0.1437 1.3902,-0.3887 1.31649,-0.17492 2.3267,-1.29299 2.32699,-2.6588 V 55.787163 c 1.18051,-5.9465 -0.77079,-12.8836 7.89911,-12.8918 7.81531,0.013 5.814,0.9453 11.6261,6.1695 1.6904,1.2446 1.7412,1.4184 3.1636,2.8231 5.8814,5.791 13.8448,9.1109 22.22421,9.1215 17.52618,2.7e-4 31.73439,-14.2073 31.73439,-31.7341 2.1e-4,-17.526 -14.20839,-31.7339003 -31.73439,-31.7339003 -9.0083,0.014 -17.5355,3.8521 -23.50932,10.4723 -1.33638,1.2797 0,5.3e-4 -1.87849,1.7724 -5.81109,5.2266003 -5.4139,7.3311003 -13.2303,7.3454003 -8.44939,2e-4 -5.00089,-7.6274003 -6.29491,-13.6446003 V -102.11644 c 0,-1.1562 -0.72499,-2.1344 -1.7458,-2.5141 -0.48996,-0.5294 -1.18976,-0.862 -1.97136,-0.862 H 197.2195 c -0.25109,0.092 -0.52009,0.1498 -0.8051,0.1453 H -25.518402 c -0.2839,-6e-4 -0.5543,-0.053 -0.8051,-0.1453 z"
         style="opacity:1;vector-effect:none;fill:#151515;fill-opacity:1;fill-rule:nonzero;stroke:none;stroke-width:24.34109688;stroke-linecap:round;stroke-linejoin:round;stroke-miterlimit:4;stroke-dasharray:none;stroke-dashoffset:0;stroke-opacity:1;paint-order:normal" />
      <path
         inkscape:connector-curvature="0"
         id="path9867"
         d="m 349.60601,180.62756 h -109.1882 c -0.5107,0 -0.9856,0.14369 -1.3912,0.38891 -1.3163,0.1755 -2.3259,1.2936 -2.3259,2.6588 v 110.17279 c -1.1806,5.94619 0.7702,12.88309 -7.89972,12.89161 -7.815,-0.013 -5.8139,-0.94512 -11.62629,-6.16961 -1.69019,-1.2446 -1.7412,-1.4184 -3.1641,-2.8231 -5.88119,-5.79091 -13.8444,-9.1109 -22.22349,-9.12151 -17.52651,0 -31.7349,14.2073 -31.73431,31.73412 0,17.526 14.20751,31.73389 31.7338,31.73389 9.0083,-0.014 17.53611,-3.85239 23.50979,-10.47221 1.33641,-1.27979 0,0 1.87831,-1.77249 5.81109,-5.2268 5.41361,-7.33079 13.22969,-7.34478 8.44952,0 5.00142,7.62687 6.29582,13.64429 v 105.6031 c 0,1.1563 0.7249,2.13389 1.74569,2.51359 0.48969,0.5297 1.18901,0.86252 1.97091,0.86252 h 23.042 c 0.25139,-0.092 0.5202,-0.14952 0.80511,-0.14521 h 221.93279 c 0.2836,0 0.5538,0.053 0.80459,0.14521 h 21.49161 c 1.48719,0 2.68549,-1.19751 2.68549,-2.68502 V 183.31305 c 0,-1.48748 -1.1975,-2.68549 -2.68499,-2.68549 H 405.29559 c 0.067,0.082 0.074,0.088 0.88932,0.93321 8.9249,8.05389 14.09959,19.5503 14.11808,31.6947 -1.8e-4,23.62809 -19.1539,42.7831 -42.78198,42.78278 -23.62811,0 -42.7818,-19.15469 -42.78241,-42.78278 0.014,-11.29691 4.4908,-22.03352 12.29759,-29.96141 1.3031,-1.3203 1.82592,-1.77589 2.56882,-2.667 z"
         style="opacity:1;vector-effect:none;fill:#151515;fill-opacity:1;fill-rule:nonzero;stroke:none;stroke-width:24.34109688;stroke-linecap:round;stroke-linejoin:round;stroke-miterlimit:4;stroke-dasharray:none;stroke-dashoffset:0;stroke-opacity:1;paint-order:normal" />
      <path
         inkscape:connector-curvature="0"
         id="path9871"
         d="m 239.36451,-105.49254 c -1.48752,0 -2.6855,1.1975 -2.6855,2.685 V 0.39026269 c 0.082,-0.068 0.088,-0.074 0.93319,-0.8898 8.05391,-8.92489999 19.55062,-14.09939969 31.6947,-14.11759969 23.6283,0 42.78342,19.1541997 42.7831,42.782 0,23.6281 -19.15449,42.7821 -42.7826,42.7824 -11.29659,-0.014 -22.03339,-4.4908 -29.96139,-12.2973 -1.32029,-1.3034 -1.77591,-1.8267 -2.667,-2.5694 V 165.26905 c 0,0.5107 0.1437,0.98502 0.3892,1.39071 0.17519,1.3163 1.29329,2.32589 2.6588,2.32589 h 110.1725 c 5.94649,1.18081 12.88389,-0.77049 12.89241,7.8994 -0.013,7.815 -0.94541,5.81422 -6.16993,11.62662 -1.24428,1.69018 -1.41838,1.74069 -2.82307,3.16359 -5.79062,5.88121 -9.11122,13.84491 -9.12173,22.224 0,17.5265 14.20781,31.7346 31.73431,31.73431 17.526,0 31.7336,-14.20831 31.7336,-31.73431 -0.014,-9.0083 -3.8518,-17.53529 -10.47189,-23.50911 -1.27979,-1.33638 0,0 -1.77239,-1.87899 -5.22661,-5.8113 -7.3311,-5.4134 -7.34513,-13.22969 0,-8.4495 7.62741,-5.0015 13.64451,-6.29582 h 105.60291 c 1.15649,0 2.1349,-0.72498 2.5146,-1.74619 0.52919,-0.4898 0.86199,-1.1888 0.8617,-1.97041 v -23.04149 c -0.092,-0.2514 -0.14941,-0.5202 -0.14489,-0.8051 V -80.510037 c 0,-0.2839 0.053,-0.5546 0.14489,-0.8051 v -21.491903 c 0,-1.4872 -1.19751,-2.685 -2.68489,-2.685 z"
         style="opacity:1;vector-effect:none;fill:#151515;fill-opacity:1;fill-rule:nonzero;stroke:none;stroke-width:24.34109688;stroke-linecap:round;stroke-linejoin:round;stroke-miterlimit:4;stroke-dasharray:none;stroke-dashoffset:0;stroke-opacity:1;paint-order:normal" />
      <path
         inkscape:connector-curvature="0"
         id="path9875"
         d="m 82.767098,212.62267 c -0.6632,-0.1777 -1.3945,-0.10142 -2.0387,0.27048 l -95.4122,55.08652 c -5.74,1.9508 -10.7721,7.1094 -15.1144,-0.39481 -3.8962,-6.77461 -2.0887,-5.50799 -0.4702,-13.15379 0.2327,-2.08611 0.3581,-2.2166 0.863,-4.15142 2.0744,-7.9887 0.9683,-16.54529 -3.2123,-23.807 -8.763,-15.17848 -28.170998,-20.37969 -43.349498,-11.616 -15.178302,8.76253 -20.3786,28.17162 -11.615499,43.34971 4.516199,7.79451 12.103899,13.26059 20.823698,15.124 1.7766,0.5175 1e-4,0 2.4742,0.7406 7.432101,2.419 9.0556,1.02261 12.975999,7.78452 4.2249,7.31739 -4.104599,8.14519 -8.668399,12.27457 l -91.455299,52.80142 c -1.0012,0.5779 -1.4855,1.69471 -1.304,2.76849 -0.2137,0.68921 -0.1523,1.46111 0.2387,2.1382 l 11.5209,19.95469 c 0.2053,0.17172 0.39,0.37571 0.5286,0.62482 l 110.966298,192.19931 c 0.1414,0.24598 0.2307,0.50649 0.2763,0.76999 l 10.746,18.6118 c 0.7436,1.28799 2.3799,1.7268 3.6684,0.9829 L 218.2819,450.41765 c 1.28802,-0.74358 1.72651,-2.38008 0.98279,-3.66818 l -51.59877,-89.3718 c -0.038,0.099 -0.039,0.10779 -0.36351,1.2369 -2.51212,11.7561 -9.88132,21.98579 -20.3893,28.0739 -20.4625,11.81389 -46.62821,4.80388 -58.441712,-15.65942 -11.8142,-20.46269 -4.8029,-46.62789 15.659502,-58.44227 9.7905,-5.63632 21.3271,-7.12801 32.09619,-4.33121 1.79491,0.4685 2.45081,0.69401 3.59431,0.8917 L 85.226498,214.58776 c -0.2552,-0.4421 -0.6165,-0.78119 -1.0316,-1.00979 -0.3688,-0.47921 -0.8733,-0.8075 -1.4273,-0.95591 z"
         style="opacity:1;vector-effect:none;fill:#95af28;fill-opacity:1;fill-rule:nonzero;stroke:none;stroke-width:24.34109688;stroke-linecap:round;stroke-linejoin:round;stroke-miterlimit:4;stroke-dasharray:none;stroke-dashoffset:0;stroke-opacity:1;paint-order:normal" />
    </g>
  </g>
</svg>
